# xmcd
#
# Track frame offsets: 
#        150
#        13162
#        25846
#        40106
#        53917
#        70652
#        87387
#        105847
#        122582
#        136391
#        155671
#        171771
#
# Disc length: 2368 seconds
#
# Revision: 1
# Processed by: cddbd v1.5.2PL0 Copyright (c) Steve Scherf et al.
# Submitted via: ExactAudioCopyFreeDBPlugin 1.0
#
DISCID=94093e0c
DTITLE=VIDIEK - Nechajte si ju
DYEAR=1995
DGENRE=Rock
TTITLE0=Nechajte si ju
TTITLE1=Blázon
TTITLE2=Fajčenie škodí zdraviu
TTITLE3=Návštěva u strýka
TTITLE4=Všetko sa dá
TTITLE5=S vlastnou tvárou
TTITLE6=Tisic divov, možno aj viac
TTITLE7=Vidiečan
TTITLE8=Kroky lásky
TTITLE9=Film
TTITLE10=Slovensky tanec
TTITLE11=K šťastiu nám už nič nechýba
EXTD=
EXTT0=
EXTT1=
EXTT2=
EXTT3=
EXTT4=
EXTT5=
EXTT6=
EXTT7=
EXTT8=
EXTT9=
EXTT10=
EXTT11=
PLAYORDER=
